<svg width="244" height="89" viewBox="0 0 244 89" fill="none" xmlns="http://www.w3.org/2000/svg">
  <path fill-rule="evenodd" clip-rule="evenodd" d="M240.258 0.839971C238.771 1.69398 226.975 3.32907 214.038 4.47474C210.33 4.80336 207.296 5.48557 207.296 5.99198C207.296 7.14264 208.546 7.24452 220.281 7.05074C227.045 6.93887 229.34 7.18858 228.272 7.92073C227.448 8.48507 223.209 11.0741 218.852 13.672C214.495 16.271 210.931 18.847 210.932 19.3964C210.936 21.442 214.421 20.9446 220.488 18.032C223.926 16.3819 226.859 15.1543 227.008 15.3021C227.156 15.451 225.937 18.006 224.297 20.9805C220.787 27.3481 220.483 29.8842 223.23 29.8842C224.556 29.8842 226.662 27.5718 229.824 22.6426C232.378 18.6602 236.148 13.3784 238.201 10.9063C242.755 5.42264 244.542 2.19339 243.741 0.896903C243.012 -0.282723 242.236 -0.295707 240.258 0.839971ZM193.47 24.3816C182.414 26.0946 180.502 27.9135 189.867 27.8096C197.512 27.7257 204.412 26.0536 205.052 24.1309C205.543 22.6566 204.445 22.6805 193.47 24.3816ZM165.345 29.5565C152.303 30.3786 152.152 32.9306 165.154 32.7808C174.448 32.6749 178.333 31.9837 178.639 30.3836C178.844 29.3038 174.065 29.0072 165.345 29.5565ZM130.136 31.5502C123.197 32.7228 129.482 34.8883 139.75 34.8634C145.874 34.8474 149.499 33.6807 148.019 32.2015C147.127 31.3105 134.316 30.843 130.136 31.5502ZM100.655 34.5867C99.4119 34.8254 98.6518 35.4387 98.9664 35.9481C100.075 37.742 119.399 36.6013 119.399 34.7425C119.399 33.8815 104.948 33.7616 100.655 34.5867ZM78.9457 37.8779C71.85 39.3471 63.9492 42.3427 64.4626 43.3685C64.7373 43.9178 66.3104 44.2414 67.9585 44.0886C73.3353 43.5882 88.5895 39.3981 88.7633 38.3743C88.985 37.0778 84.0198 36.8271 78.9457 37.8779ZM50.6607 46.3839C43.0785 49.6781 38.3949 54.8071 44.2361 53.4207C47.9119 52.5488 59.4684 46.6616 59.4684 45.6608C59.4684 44.3903 54.2695 44.8168 50.6607 46.3839ZM24.3233 62.1616C17.9637 66.5075 15.3628 70.8365 19.1114 70.8365C21.3558 70.8365 34.4975 60.8581 34.4975 59.1541C34.4975 56.7069 30.634 57.8486 24.3233 62.1616ZM6.08157 77.3449C1.66171 81.7638 -0.986204 86.693 0.345245 88.0245C1.81753 89.4967 4.49441 87.6769 9.38772 81.8736C15.8512 74.2086 13.0515 70.374 6.08157 77.3449Z" fill="#0069FF"/>
</svg>
